<svg aria-hidden="true" style="position: absolute; width: 0; height: 0; overflow: hidden;" version="1.1" xmlns="http://www.w3.org/2000/svg" xmlns:xlink="http://www.w3.org/1999/xlink">
<defs>
<symbol id="icon-arrow" viewBox="0 0 24 32">
<path d="M21.028 17.594l-12.75 12.75c-0.881 0.881-2.306 0.881-3.178 0l-2.119-2.119c-0.881-0.881-0.881-2.306 0-3.178l9.037-9.038-9.037-9.037c-0.881-0.881-0.881-2.306 0-3.178l2.109-2.138c0.881-0.881 2.306-0.881 3.178 0l12.75 12.75c0.891 0.881 0.891 2.306 0.009 3.188z"></path>
</symbol>
<symbol id="icon-logo" viewBox="0 0 41 32">
<path d="M38.196 0.197c-3.86 0.219-11.533 1.018-16.27 3.923-0.327 0.2-0.512 0.557-0.512 0.929v25.676c0 0.815 0.89 1.33 1.64 0.952 4.873-2.457 11.921-3.127 15.406-3.311 1.19-0.063 2.115-1.018 2.115-2.163v-23.84c0.001-1.25-1.081-2.24-2.379-2.166zM18.649 4.12c-4.736-2.904-12.409-3.703-16.269-3.923-1.298-0.073-2.38 0.917-2.38 2.166v23.84c0 1.146 0.925 2.101 2.115 2.163 3.486 0.183 10.538 0.855 15.411 3.313 0.748 0.378 1.635-0.137 1.635-0.95v-25.694c0-0.373-0.185-0.716-0.512-0.917z"></path>
</symbol>
<symbol id="icon-art1" viewBox="0 0 34 32">
<path d="M34.067 6.933v1.133c0 0.15-0.060 0.294-0.166 0.401s-0.25 0.166-0.401 0.166h-1.7v0.85c0 0.469-0.381 0.85-0.85 0.85h-27.767c-0.469 0-0.85-0.381-0.85-0.85v-0.85h-1.7c-0.15 0-0.294-0.060-0.401-0.166s-0.166-0.25-0.166-0.401v-1.133c0-0.112 0.033-0.222 0.096-0.315s0.151-0.166 0.254-0.209l16.433-6.233c0.139-0.057 0.295-0.057 0.433 0l16.433 6.233c0.104 0.043 0.192 0.115 0.254 0.209s0.096 0.203 0.096 0.315zM32.367 28.467h-30.6c-0.939 0-1.7 0.761-1.7 1.7v1.133c0 0.15 0.060 0.294 0.166 0.401s0.25 0.166 0.401 0.166h32.867c0.15 0 0.294-0.060 0.401-0.166s0.166-0.25 0.166-0.401v-1.133c0-0.939-0.761-1.7-1.7-1.7zM5.733 11.467v13.6h-2.55c-0.469 0-0.85 0.381-0.85 0.85v1.417h29.467v-1.417c0-0.469-0.381-0.85-0.85-0.85h-2.55v-13.6h-4.533v13.6h-4.533v-13.6h-4.533v13.6h-4.533v-13.6h-4.533z"></path>
</symbol>
<symbol id="icon-art2" viewBox="0 0 32 32">
<path d="M21.858 6.167c0-3.258-2.642-5.9-5.9-5.9s-5.9 2.641-5.9 5.9c0 3.259 2.641 5.9 5.9 5.9s5.9-2.641 5.9-5.9zM14.581 15.084c-3.646-2.232-9.552-2.845-12.524-3.014-0.999-0.056-1.831 0.704-1.831 1.665v13.693c0 0.881 0.712 1.615 1.628 1.662 2.683 0.141 8.112 0.656 11.864 2.546 0.576 0.29 1.259-0.105 1.259-0.73v-15.118c-0.001-0.287-0.143-0.55-0.395-0.704zM29.859 12.070c-2.971 0.168-8.878 0.782-12.524 3.014-0.252 0.154-0.394 0.428-0.394 0.715v15.106c0 0.626 0.685 1.022 1.262 0.731 3.751-1.888 9.177-2.404 11.859-2.544 0.916-0.048 1.628-0.782 1.628-1.663v-13.694c-0.001-0.961-0.833-1.721-1.832-1.665z"></path>
</symbol>
<symbol id="icon-art3" viewBox="0 0 32 32">
<path d="M31.119 8.881l-2.881 2.881c-0.294 0.294-0.769 0.294-1.063 0l-6.938-6.938c-0.294-0.294-0.294-0.769 0-1.063l2.881-2.881c1.169-1.169 3.069-1.169 4.244 0l3.756 3.756c1.175 1.169 1.175 3.069 0 4.244zM17.763 6.238l-16.413 16.413-1.325 7.594c-0.181 1.025 0.713 1.912 1.738 1.738l7.594-1.331 16.413-16.412c0.294-0.294 0.294-0.769 0-1.063l-6.938-6.938c-0.3-0.294-0.775-0.294-1.069 0zM7.756 21.244c-0.344-0.344-0.344-0.894 0-1.237l9.625-9.625c0.344-0.344 0.894-0.344 1.238 0s0.344 0.894 0 1.238l-9.625 9.625c-0.344 0.344-0.894 0.344-1.237 0zM5.5 26.5h3v2.269l-4.031 0.706-1.944-1.944 0.706-4.031h2.269v3z"></path>
</symbol>
</defs>
</svg>
